<svg width="10" height="18" viewBox="0 0 10 18" fill="none" xmlns="http://www.w3.org/2000/svg">
<path d="M1.20057 16.7804C1.07214 16.6396 1 16.4487 1 16.2498C1 16.0508 1.07214 15.8599 1.20057 15.7191L7.3455 8.99097L1.20057 2.26282C1.07943 2.12047 1.01348 1.9322 1.01661 1.73766C1.01975 1.54313 1.09172 1.35752 1.21738 1.21994C1.34303 1.08236 1.51255 1.00355 1.69022 1.00012C1.8679 0.996685 2.03985 1.06889 2.16986 1.20154L8.79943 8.46032C8.92786 8.60112 9 8.79197 9 8.99097C9 9.18996 8.92786 9.38081 8.79943 9.52161L2.16986 16.7804C2.04127 16.921 1.86696 17 1.68521 17C1.50347 17 1.32916 16.921 1.20057 16.7804V16.7804Z" />
</svg>
