<svg width="18" height="20" viewBox="0 0 18 20" fill="none" xmlns="http://www.w3.org/2000/svg">
<g clip-path="url(#clip0_605_16387)">
<path d="M10.5869 0.938477C11.6743 0.938477 12.5533 1.7812 12.6167 2.8414L12.6258 2.97732L12.6167 2.75078H14.2115C15.3352 2.75078 16.2504 3.65693 16.2504 4.78962V17.0227C16.2504 18.1463 15.3442 19.0615 14.2115 19.0615H3.7908C2.66717 19.0615 1.75195 18.1554 1.75195 17.0227V4.78962C1.75195 3.666 2.65811 2.75078 3.7908 2.75078H5.38562V2.91389L5.37656 2.97732C5.37656 1.85369 6.28271 0.938477 7.41541 0.938477H10.5869ZM10.5869 5.01616H7.41541C6.69048 5.01616 6.05618 4.64464 5.69372 4.08283L5.7209 4.11001H3.7908C3.61055 4.11001 3.43769 4.18161 3.31024 4.30906C3.18278 4.43652 3.11118 4.60938 3.11118 4.78962V17.0227C3.11118 17.3942 3.41927 17.7023 3.7908 17.7023H14.2115C14.5831 17.7023 14.8912 17.3942 14.8912 17.0227V4.78962C14.8912 4.60938 14.8196 4.43652 14.6921 4.30906C14.5647 4.18161 14.3918 4.11001 14.2115 4.11001H12.2814L12.2996 4.08283C11.9371 4.64464 11.3028 5.01616 10.5869 5.01616ZM10.5869 2.29771H7.41541C7.23516 2.29771 7.0623 2.36931 6.93485 2.49676C6.80739 2.62421 6.73579 2.79707 6.73579 2.97732C6.73579 3.15756 6.80739 3.33043 6.93485 3.45788C7.0623 3.58533 7.23516 3.65693 7.41541 3.65693H10.5869C10.7672 3.65693 10.94 3.58533 11.0675 3.45788C11.195 3.33043 11.2666 3.15756 11.2666 2.97732C11.2666 2.79707 11.195 2.62421 11.0675 2.49676C10.94 2.36931 10.7672 2.29771 10.5869 2.29771ZM5.37656 12.2654H9.00117C9.18142 12.2654 9.35428 12.1938 9.48173 12.0663C9.60918 11.9389 9.68079 11.766 9.68079 11.5858C9.68079 11.4055 9.60918 11.2327 9.48173 11.1052C9.35428 10.9778 9.18142 10.9062 9.00117 10.9062H5.37656C5.19632 10.9062 5.02346 10.9778 4.896 11.1052C4.76855 11.2327 4.69695 11.4055 4.69695 11.5858C4.69695 11.766 4.76855 11.9389 4.896 12.0663C5.02346 12.1938 5.19632 12.2654 5.37656 12.2654ZM5.37656 8.64077H12.6258C12.806 8.64077 12.9789 8.56917 13.1063 8.44172C13.2338 8.31426 13.3054 8.1414 13.3054 7.96116C13.3054 7.78091 13.2338 7.60805 13.1063 7.4806C12.9789 7.35315 12.806 7.28154 12.6258 7.28154H5.37656C5.19632 7.28154 5.02346 7.35315 4.896 7.4806C4.76855 7.60805 4.69695 7.78091 4.69695 7.96116C4.69695 8.1414 4.76855 8.31426 4.896 8.44172C5.02346 8.56917 5.19632 8.64077 5.37656 8.64077ZM5.37656 15.89H10.8135C10.9937 15.89 11.1666 15.8184 11.294 15.6909C11.4215 15.5635 11.4931 15.3906 11.4931 15.2104C11.4931 15.0301 11.4215 14.8573 11.294 14.7298C11.1666 14.6024 10.9937 14.5308 10.8135 14.5308H5.37656C5.19632 14.5308 5.02346 14.6024 4.896 14.7298C4.76855 14.8573 4.69695 15.0301 4.69695 15.2104C4.69695 15.3906 4.76855 15.5635 4.896 15.6909C5.02346 15.8184 5.19632 15.89 5.37656 15.89Z" />
</g>
<defs>
<clipPath id="clip0_605_16387">
<rect width="14.4984" height="18.123" transform="translate(1.75195 0.938477)"/>
</clipPath>
</defs>
</svg>
