<svg width="18" height="18" viewBox="0 0 18 18" fill="none" xmlns="http://www.w3.org/2000/svg">
<path d="M2.8125 3.9375C2.66332 3.9375 2.52024 3.87824 2.41475 3.77275C2.30926 3.66726 2.25 3.52418 2.25 3.375C2.25 3.22582 2.30926 3.08274 2.41475 2.97725C2.52024 2.87176 2.66332 2.8125 2.8125 2.8125H15.1875C15.3367 2.8125 15.4798 2.87176 15.5852 2.97725C15.6907 3.08274 15.75 3.22582 15.75 3.375C15.75 3.52418 15.6907 3.66726 15.5852 3.77275C15.4798 3.87824 15.3367 3.9375 15.1875 3.9375H2.8125ZM5.0625 1.6875C4.91332 1.6875 4.77024 1.62824 4.66475 1.52275C4.55926 1.41726 4.5 1.27418 4.5 1.125C4.5 0.975816 4.55926 0.832742 4.66475 0.727252C4.77024 0.621763 4.91332 0.5625 5.0625 0.5625H12.9375C13.0867 0.5625 13.2298 0.621763 13.3352 0.727252C13.4407 0.832742 13.5 0.975816 13.5 1.125C13.5 1.27418 13.4407 1.41726 13.3352 1.52275C13.2298 1.62824 13.0867 1.6875 12.9375 1.6875H5.0625ZM0 14.625C0 15.0726 0.17779 15.5018 0.494257 15.8182C0.810725 16.1347 1.23995 16.3125 1.6875 16.3125H16.3125C16.7601 16.3125 17.1893 16.1347 17.5057 15.8182C17.8222 15.5018 18 15.0726 18 14.625V6.75C18 6.30245 17.8222 5.87322 17.5057 5.55676C17.1893 5.24029 16.7601 5.0625 16.3125 5.0625H1.6875C1.23995 5.0625 0.810725 5.24029 0.494257 5.55676C0.17779 5.87322 0 6.30245 0 6.75L0 14.625ZM1.6875 15.1875C1.53832 15.1875 1.39524 15.1282 1.28975 15.0227C1.18426 14.9173 1.125 14.7742 1.125 14.625V6.75C1.125 6.60082 1.18426 6.45774 1.28975 6.35225C1.39524 6.24676 1.53832 6.1875 1.6875 6.1875H16.3125C16.4617 6.1875 16.6048 6.24676 16.7102 6.35225C16.8157 6.45774 16.875 6.60082 16.875 6.75V14.625C16.875 14.7742 16.8157 14.9173 16.7102 15.0227C16.6048 15.1282 16.4617 15.1875 16.3125 15.1875H1.6875Z" />
</svg>
