<svg width="18" height="18" viewBox="0 0 18 18" fill="none" xmlns="http://www.w3.org/2000/svg">
<path fill-rule="evenodd" clip-rule="evenodd" d="M1.92267 2.56046C1.92267 2.18162 1.61556 1.87451 1.23673 1.87451C0.85789 1.87451 0.550781 2.18162 0.550781 2.56046V15.7649C0.550781 16.1438 0.85789 16.4509 1.23673 16.4509H17.0992C17.4781 16.4509 17.7852 16.1438 17.7852 15.7649C17.7852 15.3861 17.4781 15.079 17.0992 15.079H1.92267V2.56046ZM4.66641 3.2998C4.28758 3.2998 3.98047 3.68041 3.98047 4.1499C3.98047 4.6194 4.28758 5 4.66641 5H8.43912C8.81796 5 9.12506 4.6194 9.12506 4.1499C9.12506 3.68041 8.81796 3.2998 8.43912 3.2998H4.66641ZM5.86719 8.07812C5.86719 7.62297 6.1743 7.254 6.55313 7.254H12.6195C12.9983 7.254 13.3054 7.62297 13.3054 8.07812C13.3054 8.53328 12.9983 8.90225 12.6195 8.90225H6.55313C6.1743 8.90225 5.86719 8.53328 5.86719 8.07812ZM11.0766 11.1562C10.6977 11.1562 10.3906 11.534 10.3906 12C10.3906 12.466 10.6977 12.8438 11.0766 12.8438H14.2705C14.6493 12.8438 14.9565 12.466 14.9565 12C14.9565 11.534 14.6493 11.1562 14.2705 11.1562H11.0766Z" />
</svg>
