<svg width="20" height="18" viewBox="0 0 20 18" fill="none" xmlns="http://www.w3.org/2000/svg">
<g clip-path="url(#clip0_45_2446)">
<path fill-rule="evenodd" clip-rule="evenodd" d="M2.66667 1.20817C2.30199 1.20817 1.95226 1.35304 1.69439 1.6109C1.43653 1.86876 1.29167 2.2185 1.29167 2.58317V15.4165C1.29167 15.7812 1.43653 16.1309 1.69439 16.3888C1.95226 16.6466 2.30199 16.7915 2.66667 16.7915H17.3333C17.698 16.7915 18.0477 16.6466 18.3056 16.3888C18.5635 16.1309 18.7083 15.7812 18.7083 15.4165V5.33317C18.7083 4.9685 18.5635 4.61876 18.3056 4.3609C18.0477 4.10304 17.698 3.95817 17.3333 3.95817H9.08333C8.93009 3.95817 8.78698 3.88158 8.70198 3.75407L7.00471 1.20817H2.66667ZM1.04621 0.962717C1.47598 0.532947 2.05888 0.291504 2.66667 0.291504H7.25C7.40325 0.291504 7.54635 0.368092 7.63136 0.4956L9.32863 3.0415H17.3333C17.9411 3.0415 18.524 3.28295 18.9538 3.71272C19.3836 4.14249 19.625 4.72538 19.625 5.33317V15.4165C19.625 16.0243 19.3836 16.6072 18.9538 17.037C18.524 17.4667 17.9411 17.7082 17.3333 17.7082H2.66667C2.05888 17.7082 1.47598 17.4667 1.04621 17.037C0.616443 16.6072 0.375 16.0243 0.375 15.4165V2.58317C0.375 1.97538 0.616443 1.39249 1.04621 0.962717Z" />
</g>
<defs>
<clipPath id="clip0_45_2446">
<rect width="20" height="18"/>
</clipPath>
</defs>
</svg>
