<svg width="20" height="18" viewBox="0 0 20 18" fill="none" xmlns="http://www.w3.org/2000/svg">
<path fill-rule="evenodd" clip-rule="evenodd" d="M10.0301 0.28125C9.0941 0.28125 8.17914 0.554712 7.40089 1.06705C6.62265 1.5794 6.01608 2.30761 5.6579 3.1596C5.29971 4.0116 5.20599 4.94911 5.38859 5.85358C5.5712 6.75806 6.02192 7.58887 6.68376 8.24096C7.3456 8.89304 8.18884 9.33712 9.10684 9.51703C10.0248 9.69694 10.9764 9.60461 11.8411 9.2517C12.7059 8.89879 13.445 8.30116 13.965 7.53439C14.485 6.76761 14.7625 5.86613 14.7625 4.94394C14.7625 3.70732 14.2639 2.52134 13.3764 1.64692C12.4889 0.772496 11.2852 0.28125 10.0301 0.28125ZM18.5485 17.9995V17.0669C18.5485 15.3357 17.8504 13.6753 16.6079 12.4511C15.3654 11.2269 13.6802 10.5392 11.9231 10.5392H8.13712C6.37995 10.5392 4.69476 11.2269 3.45225 12.4511C2.20975 13.6753 1.51172 15.3357 1.51172 17.0669V17.9995H3.40469V17.9994H2.4365V17.1727C2.4365 15.6379 3.05875 14.166 4.16637 13.0807C5.27399 11.9955 6.77624 11.3858 8.34265 11.3858H11.7176C13.284 11.3858 14.7863 11.9955 15.8939 13.0807C17.0015 14.166 17.6237 15.6379 17.6237 17.1727V17.9994H16.6555V17.9995H18.5485ZM13.8443 4.98785C13.8443 7.07746 12.1504 8.77143 10.0607 8.77143C7.97113 8.77143 6.27717 7.07746 6.27717 4.98785C6.27717 2.89824 7.97113 1.20427 10.0607 1.20427C12.1504 1.20427 13.8443 2.89824 13.8443 4.98785Z"/>
<path fill-rule="evenodd" clip-rule="evenodd" d="M4.84035 2.10389C4.52061 2.01611 4.18393 1.96923 3.83631 1.96923C1.7467 1.96923 0.0527344 3.6632 0.0527344 5.75281C0.0527344 7.84242 1.7467 9.53639 3.83631 9.53639C4.53705 9.53639 5.1933 9.34589 5.75609 9.01386L5.18243 8.41618C4.77801 8.62098 4.32064 8.73638 3.83631 8.73638C2.18853 8.73638 0.852734 7.40059 0.852734 5.75281C0.852734 4.10502 2.18853 2.76923 3.83631 2.76923C4.04824 2.76923 4.25501 2.79133 4.45444 2.83334L4.84035 2.10389Z"/>
<path fill-rule="evenodd" clip-rule="evenodd" d="M15.1186 2.1039C15.4384 2.01611 15.775 1.96923 16.1227 1.96923C18.2123 1.96923 19.9062 3.6632 19.9062 5.75281C19.9062 7.84242 18.2123 9.53639 16.1227 9.53639C15.422 9.53639 14.7657 9.3459 14.203 9.01389L14.7766 8.41621C15.181 8.621 15.6384 8.73638 16.1227 8.73638C17.7705 8.73638 19.1062 7.40059 19.1062 5.75281C19.1062 4.10502 17.7705 2.76923 16.1227 2.76923C15.9107 2.76923 15.704 2.79133 15.5045 2.83335L15.1186 2.1039Z"/>
</svg>
