<svg width="16" height="18" viewBox="0 0 16 18" fill="none" xmlns="http://www.w3.org/2000/svg">
<path fill-rule="evenodd" clip-rule="evenodd" d="M4.91814 1.2505H12.9516C13.7951 1.2505 14.479 1.93436 14.479 2.77794V15.3609C14.479 16.2045 13.7951 16.8883 12.9516 16.8883H4.91814C4.07456 16.8883 3.3907 16.2045 3.3907 15.3609V2.77794C3.3907 1.93436 4.07456 1.2505 4.91814 1.2505ZM2.36969 2.77794C2.36969 1.37047 3.51067 0.229492 4.91814 0.229492H12.9516C14.359 0.229492 15.5 1.37047 15.5 2.77794V15.3609C15.5 16.7684 14.359 17.9093 12.9516 17.9093H4.91814C3.51067 17.9093 2.36969 16.7684 2.36969 15.3609V15.2446H0.3125L0.3125 14.2235H2.36969V11.6721H0.3125L0.3125 10.6511H2.36969V8.09971L0.3125 8.09971L0.3125 7.0787H2.36969V4.52679H0.3125L0.3125 3.50578L2.36969 3.50578V2.77794ZM8.64047 12.1412V9.6935H6.03358V8.67249H8.64047V6.13418H9.66148V8.67249H12.0406V9.6935H9.66148V12.1412L8.64047 12.1412Z"/>
</svg>
