<svg width="18" height="18" viewBox="0 0 18 18" fill="none" xmlns="http://www.w3.org/2000/svg">
<path fill-rule="evenodd" clip-rule="evenodd" d="M2.48355 1.09156C1.71235 1.09156 1.08717 1.71674 1.08717 2.48794V15.5208C1.08717 16.2306 1.61681 16.8168 2.30246 16.9056L12.3945 6.8135C12.4818 6.72621 12.6002 6.67717 12.7237 6.67717C12.8471 6.67717 12.9655 6.72621 13.0528 6.8135L16.9128 10.6735V2.48794C16.9128 1.71674 16.2876 1.09156 15.5164 1.09156H2.48355ZM16.9128 11.99L12.7237 7.80089L3.60735 16.9172H15.5164C16.2876 16.9172 16.9128 16.292 16.9128 15.5208V11.99ZM2.49285 17.8481H15.5164C16.8018 17.8481 17.8437 16.8061 17.8437 15.5208V2.48794C17.8437 1.20261 16.8018 0.160645 15.5164 0.160645H2.48355C1.19822 0.160645 0.15625 1.20261 0.15625 2.48794V15.5208C0.15625 16.8027 1.1926 17.8425 2.47315 17.8481C2.47971 17.8482 2.48628 17.8482 2.49285 17.8481ZM5.7415 4.81497C5.22737 4.81497 4.81058 5.23176 4.81058 5.74589C4.81058 6.26003 5.22737 6.67681 5.7415 6.67681C6.25563 6.67681 6.67242 6.26003 6.67242 5.74589C6.67242 5.23176 6.25563 4.81497 5.7415 4.81497ZM3.87966 5.74589C3.87966 4.71763 4.71323 3.88405 5.7415 3.88405C6.76976 3.88405 7.60334 4.71763 7.60334 5.74589C7.60334 6.77416 6.76976 7.60773 5.7415 7.60773C4.71323 7.60773 3.87966 6.77416 3.87966 5.74589Z" />
</svg>
