<svg width="12" height="18" viewBox="0 0 12 18" fill="none" xmlns="http://www.w3.org/2000/svg">
<g clip-path="url(#clip0_45_2443)">
<path d="M9.23925 10.6857C10.3166 11.3058 11.2013 10.8882 11.6981 10.0269C12.1958 9.1665 12.1166 8.19 11.0393 7.5681C9.96375 6.948 0.360753 3.0258 0.163653 3.3669C-0.0334472 3.708 8.16285 10.0647 9.23925 10.6857Z" />
<path fill-rule="evenodd" clip-rule="evenodd" d="M0.834491 8.36591C0.819911 8.57538 0.8125 8.78682 0.8125 9C0.8125 13.9706 4.84194 18 9.8125 18C10.2151 18 10.6114 17.9736 11 17.9224L11 16.7102C10.6128 16.7693 10.2162 16.8 9.8125 16.8C5.65965 16.8 2.26481 13.5546 2.02593 9.46161L0.834491 8.36591ZM6.12146 2.12687C7.2203 1.53553 8.47722 1.2 9.8125 1.2C10.2162 1.2 10.6128 1.23067 11 1.28982L11 0.0776458C10.6114 0.0264278 10.2151 -4.10999e-07 9.8125 -3.93402e-07C7.86451 -3.08253e-07 6.06108 0.618877 4.58808 1.67074L6.12146 2.12687Z" />
</g>
<defs>
<clipPath id="clip0_45_2443">
<rect width="18" height="12"  transform="translate(0 18) rotate(-90)"/>
</clipPath>
</defs>
</svg>
