<svg width="14" height="18" viewBox="0 0 14 18" fill="none" xmlns="http://www.w3.org/2000/svg">
<g clip-path="url(#clip0_45_2443)">
<path d="M9.73925 10.6857C10.8166 11.3058 11.7013 10.8882 12.1981 10.0269C12.6958 9.1665 12.6166 8.19 11.5393 7.5681C10.4638 6.948 0.860753 3.0258 0.663653 3.3669C0.466553 3.708 8.66285 10.0647 9.73925 10.6857Z" />
<path fill-rule="evenodd" clip-rule="evenodd" d="M1.33449 8.36591C1.31991 8.57538 1.3125 8.78682 1.3125 9C1.3125 13.9706 5.34194 18 10.3125 18C10.7151 18 11.1114 17.9736 11.5 17.9224L11.5 16.7102C11.1128 16.7693 10.7162 16.8 10.3125 16.8C6.15965 16.8 2.76481 13.5546 2.52593 9.46161L1.33449 8.36591ZM6.62146 2.12687C7.7203 1.53553 8.97722 1.2 10.3125 1.2C10.7162 1.2 11.1128 1.23067 11.5 1.28982L11.5 0.0776458C11.1114 0.0264278 10.7151 -4.10999e-07 10.3125 -3.93402e-07C8.36451 -3.08253e-07 6.56108 0.618877 5.08808 1.67074L6.62146 2.12687Z" />
</g>
<defs>
<clipPath id="clip0_45_2443">
<rect width="18" height="13" transform="translate(0.5 18) rotate(-90)"/>
</clipPath>
</defs>
</svg>
