<svg width="18" height="18" viewBox="0 0 18 18" fill="none" xmlns="http://www.w3.org/2000/svg">
<path d="M12.9064 9.06011C13.8657 9.05931 14.7976 8.74064 15.5565 8.15392C16.3154 7.56721 16.8585 6.74553 17.1008 5.81739C17.3431 4.88925 17.2709 3.90697 16.8957 3.02417C16.5204 2.14137 15.8632 1.40782 15.0267 0.938236C14.1903 0.468651 13.2218 0.289506 12.2727 0.428817C11.3236 0.568128 10.4475 1.01804 9.78126 1.70819C9.11504 2.39835 8.69633 3.28983 8.59059 4.24324C8.48486 5.19664 8.69807 6.15821 9.19688 6.97756L6.86268 8.5308C6.39204 7.98334 5.7624 7.59627 5.06143 7.42347C4.36046 7.25068 3.62305 7.30076 2.95189 7.56675C2.28072 7.83275 1.7092 8.3014 1.3169 8.90747C0.924605 9.51354 0.731058 10.2269 0.763211 10.9481C0.795363 11.6693 1.05161 12.3626 1.49628 12.9313C1.94095 13.5001 2.55191 13.916 3.24408 14.1213C3.93626 14.3265 4.67519 14.3107 5.35801 14.0763C6.04082 13.8418 6.63352 13.4002 7.05358 12.813L10.3857 14.4791C10.2223 15.1025 10.2956 15.7643 10.5913 16.3368C10.8871 16.9094 11.3844 17.3522 11.9873 17.5797C12.5902 17.8072 13.2561 17.8035 13.8564 17.5691C14.4567 17.3347 14.9489 16.8863 15.2382 16.3104C15.5274 15.7345 15.5931 15.0719 15.4227 14.4505C15.2522 13.829 14.8577 13.2926 14.3151 12.9449C13.7726 12.5971 13.1205 12.4626 12.4846 12.5672C11.8487 12.6719 11.2741 13.0083 10.8716 13.5116L7.53951 11.8455C7.78682 11.0623 7.74839 10.2168 7.43105 9.45927L9.87805 7.82794C10.6874 8.61903 11.7746 9.06139 12.9064 9.06011ZM12.9064 7.97545C12.0434 7.97545 11.2157 7.63262 10.6055 7.02238C9.99527 6.41214 9.65244 5.58448 9.65244 4.72147C9.65244 3.85845 9.99527 3.03079 10.6055 2.42055C11.2157 1.81031 12.0434 1.46748 12.9064 1.46748C13.7694 1.46748 14.5971 1.81031 15.2073 2.42055C15.8176 3.03079 16.1604 3.85845 16.1604 4.72147C16.1604 5.58448 15.8176 6.41214 15.2073 7.02238C14.5971 7.63262 13.7694 7.97545 12.9064 7.97545ZM4.22912 13.1818C3.59625 13.1818 2.9893 12.9304 2.54179 12.4829C2.09428 12.0354 1.84287 11.4284 1.84287 10.7956C1.84287 10.1627 2.09428 9.55575 2.54179 9.10824C2.9893 8.66073 3.59625 8.40932 4.22912 8.40932C4.862 8.40932 5.46895 8.66073 5.91646 9.10824C6.36397 9.55575 6.61538 10.1627 6.61538 10.7956C6.61538 11.4284 6.36397 12.0354 5.91646 12.4829C5.46895 12.9304 4.862 13.1818 4.22912 13.1818ZM14.4249 15.1342C14.4249 15.537 14.265 15.9232 13.9802 16.208C13.6954 16.4928 13.3092 16.6527 12.9064 16.6527C12.5037 16.6527 12.1174 16.4928 11.8327 16.208C11.5479 15.9232 11.3879 15.537 11.3879 15.1342C11.3879 14.7315 11.5479 14.3452 11.8327 14.0605C12.1174 13.7757 12.5037 13.6157 12.9064 13.6157C13.3092 13.6157 13.6954 13.7757 13.9802 14.0605C14.265 14.3452 14.4249 14.7315 14.4249 15.1342Z" />
</svg>
