<svg width="18" height="18" viewBox="0 0 18 18" fill="none" xmlns="http://www.w3.org/2000/svg">
<path fill-rule="evenodd" clip-rule="evenodd" d="M1.57711 5.92283C1.57711 3.40275 3.62004 1.35982 6.14012 1.35982C8.6602 1.35982 10.7031 3.40275 10.7031 5.92283C10.7031 8.44291 8.6602 10.4858 6.14012 10.4858C3.62004 10.4858 1.57711 8.44291 1.57711 5.92283ZM6.14012 0.206543C2.9831 0.206543 0.423828 2.76581 0.423828 5.92283C0.423828 8.84832 2.62148 11.2605 5.45595 11.5986V14.3924H4.04492C3.69111 14.3924 3.4043 14.6792 3.4043 15.033C3.4043 15.3868 3.69111 15.6736 4.04492 15.6736H5.45595V17.2969C5.45595 17.6507 5.74276 17.9375 6.09657 17.9375C6.45038 17.9375 6.7372 17.6507 6.7372 17.2969V15.6736H8.14822C8.50203 15.6736 8.78885 15.3868 8.78885 15.033C8.78885 14.6792 8.50203 14.3924 8.14822 14.3924H6.7372V11.6083C9.47357 11.3243 11.6365 9.10993 11.8406 6.35059L15.9037 6.35059L13.873 8.38128C13.6777 8.57654 13.6777 8.89313 13.873 9.08839C14.0683 9.28365 14.3849 9.28365 14.5801 9.08839L17.5894 6.07912C17.7846 5.88386 17.7846 5.56728 17.5894 5.37202L14.5801 2.36276C14.3849 2.16749 14.0683 2.16749 13.873 2.36276C13.6777 2.55802 13.6777 2.8746 13.873 3.06986L16.1537 5.35059L11.8281 5.35059C11.541 2.46226 9.104 0.206543 6.14012 0.206543Z" />
</svg>
