<svg width="20" height="19" viewBox="0 0 20 19" fill="none" xmlns="http://www.w3.org/2000/svg">
<path fill-rule="evenodd" clip-rule="evenodd" d="M5.18989 11.1176L2.60392 12.6106L5.1899 14L5.18988 17.0896L7.77585 15.5966L7.77586 12.6106L5.18989 11.1176ZM9.1493 11.8176L5.1899 9.53164L1.23048 11.8176L1.23047 16.3895L5.18987 18.6755L9.14929 16.3896L9.1493 11.8176Z" />
<path fill-rule="evenodd" clip-rule="evenodd" d="M14.807 11.1176L12.221 12.6106L14.8069 14L14.8069 17.0896L17.3929 15.5966L17.3929 12.6106L14.807 11.1176ZM18.7664 11.8176L14.807 9.53164L10.8475 11.8176L10.8475 16.3895L14.8069 18.6755L18.7663 16.3896L18.7664 11.8176Z" />
<path fill-rule="evenodd" clip-rule="evenodd" d="M10.1253 3.07712L7.53934 4.57013L10.1253 5.98438L10.1253 9.04917L12.7113 7.55616L12.7113 4.57014L10.1253 3.07712ZM14.0847 3.77719L10.1253 1.49121L6.16591 3.77717L6.1659 8.3491L10.1253 10.6351L14.0847 8.34912L14.0847 3.77719Z" />
</svg>
