<svg width="18" height="18" viewBox="0 0 18 18" fill="none" xmlns="http://www.w3.org/2000/svg">
<path d="M17.8594 3.15403C17.8594 2.35301 17.5412 1.5848 16.9748 1.0184C16.4084 0.451992 15.6402 0.133789 14.8391 0.133789H3.16087C2.35985 0.133789 1.59164 0.451992 1.02523 1.0184C0.458828 1.5848 0.140625 2.35301 0.140625 3.15403V14.8323C0.140625 15.6333 0.458828 16.4015 1.02523 16.9679C1.59164 17.5343 2.35985 17.8525 3.16087 17.8525H14.8391C15.6402 17.8525 16.4084 17.5343 16.9748 16.9679C17.5412 16.4015 17.8594 15.6333 17.8594 14.8323V3.15403ZM1.34872 6.57697H5.37571V11.4094H1.34872V6.57697ZM11.4162 11.4094H6.58381V6.57697H11.4162V11.4094ZM1.34872 12.6175H5.37571V16.6444H3.16087C2.16217 16.6444 1.34872 15.839 1.34872 14.8323V12.6175ZM11.4162 16.6444H6.58381V12.6175H11.4162V16.6444ZM16.6513 14.8323C16.6513 15.831 15.8459 16.6444 14.8391 16.6444H12.6243V12.6175H16.6513V14.8323ZM16.6513 6.57697V11.4094H12.6243V6.57697H16.6513ZM1.34872 3.15403C1.34872 2.15534 2.15412 1.34189 3.16087 1.34189H14.8391C15.8378 1.34189 16.6513 2.14728 16.6513 3.15403V5.36887H1.34872V3.15403Z" />
</svg>
