<svg width="16" height="18" viewBox="0 0 16 18" fill="none" xmlns="http://www.w3.org/2000/svg">
<path d="M0.552938 9.81447L1.64324 10.0848L2.46397 8.79616L0.904107 8.4106C0.717942 8.36403 0.520902 8.39332 0.356335 8.49203C0.191767 8.59074 0.073153 8.75079 0.0265851 8.93695C-0.0199827 9.12312 0.0093106 9.32016 0.108021 9.48472C0.206731 9.64929 0.366773 9.76791 0.552938 9.81447V9.81447ZM14.7845 10.0233L11.2144 13.2358L7.01716 9.98726C6.93707 9.92567 6.84497 9.88152 6.74679 9.85767L6.18844 9.71848L5.36691 11.0072L6.24683 11.2255L10.804 14.7516C10.9393 14.8558 11.1068 14.9093 11.2774 14.9031C11.448 14.8968 11.6111 14.831 11.7383 14.7172L15.7604 11.096C15.8312 11.0325 15.8887 10.9556 15.9297 10.8698C15.9706 10.7839 15.9942 10.6909 15.9989 10.5959C16.0037 10.5009 15.9896 10.4059 15.9574 10.3164C15.9253 10.2269 15.8757 10.1447 15.8116 10.0744C15.6818 9.93202 15.501 9.84669 15.3086 9.8371C15.1162 9.82751 14.9277 9.89443 14.7845 10.0233V10.0233ZM6.94757 6.49397L10.8568 8.99695C11.0156 9.09846 11.2075 9.13467 11.3923 9.098C11.5772 9.06132 11.7407 8.95461 11.8487 8.80016L15.87 3.00708C15.9244 2.9289 15.9628 2.84072 15.983 2.74761C16.0032 2.65451 16.0048 2.55833 15.9876 2.46462C15.9704 2.37092 15.9348 2.28154 15.8829 2.20166C15.831 2.12177 15.7638 2.05295 15.6852 1.99917C15.5266 1.88956 15.3309 1.84737 15.1412 1.88186C14.9515 1.91636 14.7832 2.02471 14.6733 2.18315L11.0512 7.39949L7.11875 4.88211C6.95555 4.77778 6.75765 4.7424 6.5684 4.78372C6.37985 4.82584 6.21564 4.94088 6.11164 5.10369L0.114577 14.5165C0.0442539 14.6259 0.00480978 14.7524 0.000412639 14.8824C-0.0039845 15.0125 0.0268287 15.1413 0.0895963 15.2553C0.152364 15.3693 0.244755 15.4642 0.357007 15.53C0.46926 15.5958 0.597205 15.6301 0.727323 15.6292C0.84974 15.6295 0.970248 15.5988 1.07765 15.5401C1.18506 15.4813 1.27588 15.3964 1.34167 15.2932L6.94757 6.49397V6.49397Z" />
</svg>
