<svg width="16" height="18" viewBox="0 0 16 18" fill="none" xmlns="http://www.w3.org/2000/svg">
<path fill-rule="evenodd" clip-rule="evenodd" d="M5.14286 0H10.2857V1.71429H5.14286V0ZM8.57143 6V11.1429H6.85714V6H8.57143ZM14.9571 4.26L13.74 5.47714C14.6468 6.61149 15.2148 7.97892 15.3785 9.42193C15.5422 10.8649 15.2949 12.3248 14.6652 13.6335C14.0355 14.9421 13.049 16.0463 11.8193 16.8188C10.5895 17.5913 9.16655 18.0008 7.71428 18C3.44571 18 0 14.5457 0 10.2857C0 6.02571 3.45429 2.57143 7.71428 2.57143C9.46657 2.57116 11.1663 3.16999 12.5314 4.26857L13.7486 3.05143C14.1857 3.41143 14.5886 3.82286 14.9571 4.26ZM14.2683 10.3C14.2683 13.8898 11.3582 16.8 7.76831 16.8C4.17846 16.8 1.26831 13.8898 1.26831 10.3C1.26831 6.71014 4.17846 3.79999 7.76831 3.79999C11.3582 3.79999 14.2683 6.71014 14.2683 10.3Z" />
</svg>
