<svg width="18" height="18" viewBox="0 0 18 18" fill="none" xmlns="http://www.w3.org/2000/svg">
<path fill-rule="evenodd" clip-rule="evenodd" d="M8.65385 0C7.70297 0 6.77346 0.277811 5.98284 0.798302C5.19221 1.31879 4.576 2.05859 4.21212 2.92413C3.84823 3.78968 3.75303 4.7421 3.93853 5.66095C4.12404 6.57981 4.58193 7.42384 5.25429 8.0863C5.92666 8.74875 6.78331 9.1999 7.71591 9.38267C8.64851 9.56544 9.61518 9.47163 10.4937 9.11311C11.3722 8.75459 12.123 8.14746 12.6513 7.36849C13.1796 6.58952 13.4615 5.6737 13.4615 4.73684C13.4615 3.48055 12.955 2.27572 12.0534 1.38739C11.1518 0.499059 9.92892 0 8.65385 0ZM17.3077 18V17.0526C17.3077 15.2938 16.5986 13.6071 15.3363 12.3634C14.074 11.1197 12.362 10.4211 10.5769 10.4211H6.73077C4.94566 10.4211 3.23366 11.1197 1.9714 12.3634C0.709133 13.6071 0 15.2938 0 17.0526V18H0.939453V17.1602C0.939453 15.601 1.5716 14.1057 2.69684 13.0031C3.82207 11.9006 5.34822 11.2812 6.93954 11.2812H10.3682C11.9595 11.2812 13.4856 11.9006 14.6109 13.0031C15.7361 14.1057 16.3682 15.601 16.3682 17.1602V18H17.3077ZM12.5288 4.78125C12.5288 6.90409 10.8079 8.625 8.68506 8.625C6.56221 8.625 4.84131 6.90409 4.84131 4.78125C4.84131 2.65841 6.56221 0.9375 8.68506 0.9375C10.8079 0.9375 12.5288 2.65841 12.5288 4.78125Z" />
</svg>
