<svg width="18" height="18" viewBox="0 0 18 18" fill="none" xmlns="http://www.w3.org/2000/svg">
<path fill-rule="evenodd" clip-rule="evenodd" d="M8.99955 0C8.04868 0 7.11916 0.277811 6.32854 0.798302C5.53792 1.31879 4.9217 2.05859 4.55782 2.92413C4.19394 3.78968 4.09873 4.7421 4.28424 5.66095C4.46974 6.57981 4.92763 7.42384 5.6 8.0863C6.27237 8.74875 7.12901 9.1999 8.06161 9.38267C8.99422 9.56544 9.96088 9.47163 10.8394 9.11311C11.7179 8.75459 12.4687 8.14746 12.997 7.36849C13.5253 6.58952 13.8072 5.6737 13.8072 4.73684C13.8072 3.48055 13.3007 2.27572 12.3991 1.38739C11.4975 0.499059 10.2746 0 8.99955 0ZM17.6534 18V17.0526C17.6534 15.2938 16.9443 13.6071 15.682 12.3634C14.4197 11.1197 12.7077 10.4211 10.9226 10.4211H7.07647C5.29136 10.4211 3.57936 11.1197 2.3171 12.3634C1.05484 13.6071 0.345703 15.2938 0.345703 17.0526V18H1.28516V17.1602C1.28516 15.601 1.91731 14.1057 3.04254 13.0031C4.16777 11.9006 5.69392 11.2812 7.28524 11.2812H10.7139C12.3052 11.2812 13.8313 11.9006 14.9566 13.0031C16.0818 14.1057 16.7139 15.601 16.7139 17.1602V18H17.6534ZM12.8745 4.78125C12.8745 6.90409 11.1536 8.625 9.03076 8.625C6.90792 8.625 5.18701 6.90409 5.18701 4.78125C5.18701 2.65841 6.90792 0.9375 9.03076 0.9375C11.1536 0.9375 12.8745 2.65841 12.8745 4.78125Z" />
</svg>
