<svg width="495" height="188" viewBox="0 0 495 188" fill="none" xmlns="http://www.w3.org/2000/svg">
<g clip-path="url(#clip0_606_16396)">
<path d="M70.45 121.073C71.8 112.253 73.53 103.423 72.65 94.4232C72.07 88.4932 71.27 82.5732 70.3 76.6932C70.22 76.1832 70.17 75.6832 70.1 75.1732H54.17V62.5532H70.18C70.18 62.5532 70.18 62.5432 70.18 62.5332V62.5532H79.36C78.83 58.7332 78.69 54.8632 78.6 50.9832C78.6 50.6632 78.58 50.3432 78.57 50.0232H90.33V37.5832H70.5V49.8732H54.43V37.5632H75.39C75.01 37.2632 74.6 36.9932 74.11 36.7632C70.57 35.1432 67.05 33.5032 63.58 31.7332C61.04 30.4332 59.2 28.1732 59.45 24.6532C59.49 24.0832 60.21 21.5932 60.45 21.0832C61.26 19.3332 63.07 17.5532 62.9 11.0132C62.79 6.62321 61.09 2.07321 57.4 0.503214C57.4 0.503214 56.72 -0.0467864 53.28 0.00321361C49.98 0.00321361 49.16 0.503214 49.16 0.503214C45.47 2.07321 43.78 6.62321 43.66 11.0132C43.49 17.5632 45.31 19.3432 46.11 21.0832C46.35 21.6032 47.07 24.0932 47.11 24.6532C47.36 28.1832 45.52 30.4332 42.98 31.7332C39.52 33.5032 35.99 35.1532 32.45 36.7632C30.67 37.5732 29.69 38.9032 29.16 40.7532C28.29 43.8432 28.07 46.9932 27.98 50.1732H54.46V62.4832H27.2C26.72 66.0232 25.9 69.5132 24.46 72.9032C23.83 74.3832 23.54 76.0432 23.25 77.6532C21.96 84.8232 20.77 92.0132 18.79 99.0332C18.49 100.113 18.06 101.073 17.18 101.693C14.52 103.563 13.84 106.143 11 108.143C13.34 109.273 13.62 107.803 15.28 106.853C15.07 110.033 14.51 112.943 14.72 115.883C14.8 116.933 14.95 117.733 16.27 117.213C16.27 117.213 17 118.623 18.12 118.193C19.24 117.763 21.08 116.733 21.08 116.733C22.05 116.573 22.71 114.293 22.87 113.133C22.89 113.003 22.8 113.073 22.81 112.943C23.06 108.313 23.55 103.983 24.46 99.8032C25.33 95.8432 27.09 92.0832 28.72 88.3332C30.57 84.0632 32.53 79.7732 33.69 75.2932C34.72 71.2832 34.97 67.0432 36.36 62.5132C37.14 67.5932 37.01 72.0932 36.25 76.6732C35.27 82.5532 34.48 88.4732 33.9 94.4032C33.71 96.3332 33.66 98.2432 33.68 100.163H43.1V87.6232H61.99V100.283H43.37V112.753H34.81C35.22 115.523 35.67 118.283 36.09 121.043C37.25 128.643 38.72 143.043 36.91 150.783C36.29 153.443 36.31 156.183 36.58 158.873C37.14 164.423 37.87 169.953 38.48 175.493C38.81 178.453 37.4 179.403 35.55 181.583C33.56 183.603 31.11 184.473 29.84 186.743C29.72 188.063 31.35 187.933 31.35 187.933L41.32 187.953H43.59C43.47 185.663 44.47 182.293 44.06 179.893C43.46 176.393 43.95 173.053 44.52 169.643C45.39 164.413 47.43 159.333 46.58 153.883C46.03 150.393 46.28 147.043 47.78 143.803C48.48 142.283 48.55 140.623 48.52 138.983C48.4 132.213 49.93 118.733 51.07 112.113C51.22 111.223 51.95 109.973 53.26 110.013C54.56 109.983 55.29 111.233 55.45 112.113C56.59 118.733 58.12 132.203 58 138.983C57.97 140.623 58.03 142.293 58.74 143.803C59.72 145.903 60.12 148.053 60.16 150.253H69.5C67.87 142.413 69.29 128.473 70.43 121.043L70.45 121.073Z" fill="white"/>
<path d="M95.5603 108.163C92.7103 106.153 92.0403 103.583 89.3703 101.713C88.4903 101.093 88.0603 100.133 87.7603 99.0534C85.7803 92.0334 84.5903 84.8434 83.3003 77.6734C83.1503 76.8434 83.0003 76.0134 82.8003 75.1934H72.8203C72.8203 75.1934 72.8403 75.2834 72.8503 75.3334C74.0103 79.8134 75.9703 84.1034 77.8203 88.3734C79.4503 92.1334 81.2103 95.8834 82.0803 99.8434C82.9903 104.013 83.4803 108.353 83.7303 112.983C83.7303 113.113 83.6503 113.043 83.6703 113.173C83.8303 114.333 84.4903 116.613 85.4603 116.773C85.4603 116.773 87.3003 117.803 88.4203 118.233C89.5403 118.663 90.2703 117.253 90.2703 117.253C91.6003 117.773 91.7503 116.973 91.8203 115.923C92.0303 112.973 91.4803 110.073 91.2603 106.893C92.9303 107.843 93.2003 109.313 95.5503 108.183L95.5603 108.163Z" fill="white"/>
<path d="M70.9901 181.603C69.1401 179.423 67.7301 178.473 68.0601 175.513C68.5301 171.303 69.0401 167.103 69.5201 162.903H60.5801C61.0701 165.163 61.6601 167.403 62.0301 169.673C62.5901 173.073 63.0901 176.413 62.4901 179.923C62.0801 182.323 63.0901 185.693 62.9601 187.983H65.2301L75.2001 187.963C75.2001 187.963 76.8301 188.093 76.7101 186.773C75.4401 184.503 73.0001 183.633 71.0001 181.613L70.9901 181.603Z" fill="white"/>
<path d="M145.561 124.397V120.407L152.111 119.277V72.077L145.561 70.947V66.917H171.871C175.941 66.917 179.451 67.637 182.301 69.057C185.131 70.467 187.321 72.457 188.811 74.967C190.301 77.497 191.061 80.497 191.061 83.887C191.061 87.277 190.301 90.317 188.811 92.847C187.321 95.367 185.131 97.347 182.301 98.737C179.451 100.137 175.941 100.857 171.871 100.857H158.851V119.267L165.401 120.397V124.387H145.561V124.397ZM158.851 95.847H171.871C175.991 95.847 179.131 94.707 181.211 92.457C183.281 90.217 184.321 87.367 184.321 83.977C184.321 80.587 183.271 77.717 181.211 75.447C179.131 73.157 175.991 71.987 171.871 71.987H158.851V95.847V95.847Z" fill="white"/>
<path d="M222.56 124.397V120.407L229.11 119.277V97.5868C229.11 93.8568 228.28 91.0368 226.64 89.2168C224.99 87.3768 222.52 86.4468 219.31 86.4468C217.04 86.4468 214.95 86.9968 213.08 88.0768C211.22 89.1568 209.67 90.6368 208.48 92.4768L208.39 92.6268V119.287L214.94 120.417V124.407H195.09V120.417L201.64 119.287V67.8968L195.09 66.7668V62.7368H208.38V89.0468L209.45 87.5468C210.89 85.5368 212.68 83.9568 214.76 82.8468C216.83 81.7468 219.18 81.1868 221.72 81.1868C226.19 81.1868 229.69 82.5368 232.14 85.1868C234.6 87.8568 235.84 92.0568 235.84 97.6768V119.287L242.39 120.417V124.407H222.54L222.56 124.397Z" fill="white"/>
<path d="M266.281 125.247C262.391 125.247 258.971 124.347 256.101 122.577C253.231 120.807 250.991 118.307 249.421 115.147C247.851 111.967 247.051 108.227 247.051 104.047V102.277C247.051 98.2568 247.891 94.6168 249.541 91.4568C251.191 88.2968 253.411 85.7668 256.141 83.9368C258.861 82.1168 261.861 81.1968 265.081 81.1968C268.861 81.1968 272.071 81.9768 274.601 83.5268C277.121 85.0668 279.061 87.2668 280.341 90.0568C281.641 92.8768 282.301 96.2568 282.301 100.097V104.457H254.331L254.071 104.887L253.951 105.257C254.001 108.117 254.511 110.687 255.471 112.907C256.431 115.157 257.851 116.957 259.671 118.257C261.501 119.557 263.731 120.217 266.281 120.217C269.021 120.217 271.461 119.817 273.551 119.027C275.391 118.327 277.041 117.387 278.441 116.217L280.931 120.357C279.481 121.667 277.591 122.797 275.291 123.717C272.811 124.717 269.781 125.227 266.281 125.227V125.247ZM265.071 86.2568C263.181 86.2568 261.441 86.8168 259.901 87.9168C258.381 88.9968 257.121 90.4868 256.141 92.3368C255.171 94.1668 254.531 96.2668 254.231 98.5768L254.211 98.7268L254.411 99.2468L254.891 99.4468H275.541V97.8068C275.541 95.6468 275.151 93.6668 274.391 91.9468C273.611 90.1968 272.421 88.7968 270.871 87.7868C269.321 86.7768 267.361 86.2568 265.061 86.2568H265.071Z" fill="white"/>
<path d="M315.691 124.397V120.407L322.241 119.277V97.6268C322.241 93.5868 321.441 90.7868 319.811 89.0468C318.181 87.3168 315.711 86.4468 312.441 86.4468C310.061 86.4468 307.921 87.0368 306.081 88.1868C304.241 89.3368 302.761 90.9268 301.671 92.9168L301.601 93.0468V119.277L308.151 120.407V124.397H288.301V120.407L294.851 119.277V87.1468L288.301 86.0168V81.9868H300.791L301.461 89.6868L302.401 88.1868C303.791 85.9768 305.551 84.2268 307.641 83.0068C309.721 81.7868 312.131 81.1768 314.801 81.1768C319.301 81.1768 322.821 82.5068 325.261 85.1168C327.721 87.7468 328.961 91.8968 328.961 97.4568V119.267L335.511 120.397V124.387H315.661L315.691 124.397Z" fill="white"/>
<path d="M359.461 125.247C355.581 125.247 352.191 124.327 349.391 122.507C346.591 120.687 344.401 118.127 342.871 114.897C341.331 111.647 340.551 107.877 340.551 103.687V102.797C340.551 98.6068 341.331 94.8368 342.871 91.5868C344.401 88.3568 346.591 85.7868 349.391 83.9568C352.191 82.1268 355.551 81.1968 359.381 81.1968C363.211 81.1968 366.651 82.1268 369.451 83.9568C372.251 85.7968 374.441 88.3568 375.971 91.5668C377.501 94.8068 378.281 98.5868 378.281 102.797V103.687C378.281 107.897 377.501 111.677 375.971 114.937C374.441 118.167 372.261 120.717 369.471 122.527C366.691 124.337 363.321 125.247 359.461 125.247V125.247ZM359.381 86.2568C356.731 86.2568 354.471 86.9968 352.651 88.4568C350.861 89.9068 349.501 91.8968 348.611 94.3968C347.731 96.8468 347.291 99.6768 347.291 102.797V103.687C347.291 106.807 347.731 109.627 348.611 112.087C349.501 114.587 350.871 116.587 352.681 118.027C354.511 119.487 356.791 120.227 359.461 120.227C362.131 120.227 364.371 119.487 366.171 118.017C367.951 116.577 369.311 114.577 370.211 112.077C371.101 109.617 371.551 106.787 371.551 103.677V102.787C371.551 99.6768 371.101 96.8468 370.211 94.3868C369.301 91.8868 367.931 89.8868 366.151 88.4468C364.331 86.9868 362.061 86.2368 359.381 86.2368V86.2568Z" fill="white"/>
<path d="M386.531 124.987V116.847H394.451V124.987H386.531Z" fill="white"/>
<path d="M441.81 124.397V120.407L446.43 119.607L442.19 107.757H417.92L413.55 119.607L418.18 120.407V124.397H402.6V120.427L406.77 119.847L427.22 66.9268H433.2L453.28 119.847L457.42 120.427V124.397H441.8H441.81ZM429.49 76.3268L419.95 102.297H440.22L430.71 75.9368H429.88L429.5 76.3268H429.49Z" fill="white"/>
<path d="M463.371 124.397V120.417L469.921 119.287V72.0868L463.371 70.9568V66.9268H483.211V70.9568L476.661 72.0868V119.287L483.211 120.417V124.397H463.371Z" fill="white"/>
</g>
<defs>
<clipPath id="clip0_606_16396">
<rect width="494.21" height="187.983" fill="white"/>
</clipPath>
</defs>
</svg>
