<svg width="380" height="188" viewBox="0 0 380 188" fill="none" xmlns="http://www.w3.org/2000/svg">
<g clip-path="url(#clip0_607_16444)">
<path d="M60.45 121.073C61.8 112.253 63.53 103.423 62.65 94.4232C62.07 88.4932 61.27 82.5732 60.3 76.6932C60.22 76.1832 60.17 75.6832 60.1 75.1732H44.17V62.5532H60.18C60.18 62.5532 60.18 62.5432 60.18 62.5332V62.5532H69.36C68.83 58.7332 68.69 54.8632 68.6 50.9832C68.6 50.6632 68.58 50.3432 68.57 50.0232H80.33V37.5832H60.5V49.8732H44.43V37.5632H65.39C65.01 37.2632 64.6 36.9932 64.11 36.7632C60.57 35.1432 57.05 33.5032 53.58 31.7332C51.04 30.4332 49.2 28.1732 49.45 24.6532C49.49 24.0832 50.21 21.5932 50.45 21.0832C51.26 19.3332 53.07 17.5532 52.9 11.0132C52.79 6.62321 51.09 2.07321 47.4 0.503214C47.4 0.503214 46.72 -0.0467864 43.28 0.00321361C39.98 0.00321361 39.16 0.503214 39.16 0.503214C35.47 2.07321 33.78 6.62321 33.66 11.0132C33.49 17.5632 35.31 19.3432 36.11 21.0832C36.35 21.6032 37.07 24.0932 37.11 24.6532C37.36 28.1832 35.52 30.4332 32.98 31.7332C29.52 33.5032 25.99 35.1532 22.45 36.7632C20.67 37.5732 19.69 38.9032 19.16 40.7532C18.29 43.8432 18.07 46.9932 17.98 50.1732H44.46V62.4832H17.2C16.72 66.0232 15.9 69.5132 14.46 72.9032C13.83 74.3832 13.54 76.0432 13.25 77.6532C11.96 84.8232 10.77 92.0132 8.79 99.0332C8.49 100.113 8.06 101.073 7.18 101.693C4.52 103.563 3.84 106.143 1 108.143C3.34 109.273 3.62 107.803 5.28 106.853C5.07 110.033 4.51 112.943 4.72 115.883C4.8 116.933 4.95 117.733 6.27 117.213C6.27 117.213 7 118.623 8.12 118.193C9.24 117.763 11.08 116.733 11.08 116.733C12.05 116.573 12.71 114.293 12.87 113.133C12.89 113.003 12.8 113.073 12.81 112.943C13.06 108.313 13.55 103.983 14.46 99.8032C15.33 95.8432 17.09 92.0832 18.72 88.3332C20.57 84.0632 22.53 79.7732 23.69 75.2932C24.72 71.2832 24.97 67.0432 26.36 62.5132C27.14 67.5932 27.01 72.0932 26.25 76.6732C25.27 82.5532 24.48 88.4732 23.9 94.4032C23.71 96.3332 23.66 98.2432 23.68 100.163H33.1V87.6232H51.99V100.283H33.37V112.753H24.81C25.22 115.523 25.67 118.283 26.09 121.043C27.25 128.643 28.72 143.043 26.91 150.783C26.29 153.443 26.31 156.183 26.58 158.873C27.14 164.423 27.87 169.953 28.48 175.493C28.81 178.453 27.4 179.403 25.55 181.583C23.56 183.603 21.11 184.473 19.84 186.743C19.72 188.063 21.35 187.933 21.35 187.933L31.32 187.953H33.59C33.47 185.663 34.47 182.293 34.06 179.893C33.46 176.393 33.95 173.053 34.52 169.643C35.39 164.413 37.43 159.333 36.58 153.883C36.03 150.393 36.28 147.043 37.78 143.803C38.48 142.283 38.55 140.623 38.52 138.983C38.4 132.213 39.93 118.733 41.07 112.113C41.22 111.223 41.95 109.973 43.26 110.013C44.56 109.983 45.29 111.233 45.45 112.113C46.59 118.733 48.12 132.203 48 138.983C47.97 140.623 48.03 142.293 48.74 143.803C49.72 145.903 50.12 148.053 50.16 150.253H59.5C57.87 142.413 59.29 128.473 60.43 121.043L60.45 121.073Z" fill="#F7F7F7"/>
<path d="M85.5603 108.163C82.7103 106.153 82.0403 103.583 79.3703 101.713C78.4903 101.093 78.0603 100.133 77.7603 99.0534C75.7803 92.0334 74.5903 84.8434 73.3003 77.6734C73.1503 76.8434 73.0003 76.0134 72.8003 75.1934H62.8203C62.8203 75.1934 62.8403 75.2834 62.8503 75.3334C64.0103 79.8134 65.9703 84.1034 67.8203 88.3734C69.4503 92.1334 71.2103 95.8834 72.0803 99.8434C72.9903 104.013 73.4803 108.353 73.7303 112.983C73.7303 113.113 73.6503 113.043 73.6703 113.173C73.8303 114.333 74.4903 116.613 75.4603 116.773C75.4603 116.773 77.3003 117.803 78.4203 118.233C79.5403 118.663 80.2703 117.253 80.2703 117.253C81.6003 117.773 81.7503 116.973 81.8203 115.923C82.0303 112.973 81.4803 110.073 81.2603 106.893C82.9303 107.843 83.2003 109.313 85.5503 108.183L85.5603 108.163Z" fill="#F7F7F7"/>
<path d="M60.9901 181.603C59.1401 179.423 57.7301 178.473 58.0601 175.513C58.5301 171.303 59.0401 167.103 59.5201 162.903H50.5801C51.0701 165.163 51.6601 167.403 52.0301 169.673C52.5901 173.073 53.0901 176.413 52.4901 179.923C52.0801 182.323 53.0901 185.693 52.9601 187.983H55.2301L65.2001 187.963C65.2001 187.963 66.8301 188.093 66.7101 186.773C65.4401 184.503 63.0001 183.633 61.0001 181.613L60.9901 181.603Z" fill="#F7F7F7"/>
<path d="M129.561 45.4695V42.5272L134.391 41.6939V6.88762L129.561 6.05433V3.08252H148.962C151.963 3.08252 154.552 3.61346 156.653 4.6606C158.74 5.70036 160.355 7.16783 161.454 9.01876C162.553 10.8844 163.113 13.0967 163.113 15.5966C163.113 18.0964 162.553 20.3382 161.454 22.2038C160.355 24.0621 158.74 25.5222 156.653 26.5473C154.552 27.5796 151.963 28.1106 148.962 28.1106H139.361V41.6865L144.191 42.5198V45.4621H129.561V45.4695ZM139.361 24.4161H148.962C152 24.4161 154.316 23.5755 155.85 21.9163C157.376 20.2644 158.143 18.1628 158.143 15.6629C158.143 13.1631 157.369 11.0467 155.85 9.37272C154.316 7.68403 152 6.82124 148.962 6.82124H139.361V24.4161V24.4161Z" fill="#F7F7F7"/>
<path d="M186.341 45.4694V42.5271L191.171 41.6938V25.6991C191.171 22.9485 190.559 20.869 189.35 19.5269C188.133 18.1701 186.311 17.4843 183.944 17.4843C182.27 17.4843 180.729 17.8898 179.35 18.6863C177.979 19.4827 176.836 20.574 175.958 21.9309L175.892 22.0415V41.7012L180.722 42.5344V45.4768H166.084V42.5344L170.914 41.7012V3.80509L166.084 2.9718V0H175.884V19.4016L176.673 18.2954C177.735 16.8132 179.055 15.6481 180.589 14.8295C182.116 14.0184 183.848 13.6054 185.722 13.6054C189.018 13.6054 191.599 14.6009 193.405 16.5551C195.219 18.524 196.134 21.6212 196.134 25.7655V41.7012L200.964 42.5344V45.4768H186.326L186.341 45.4694Z" fill="#F7F7F7"/>
<path d="M218.583 46.0962C215.714 46.0962 213.192 45.4325 211.076 44.1273C208.96 42.822 207.308 40.9785 206.15 38.6482C204.992 36.3032 204.402 33.5453 204.402 30.4629V29.1576C204.402 26.1932 205.022 23.509 206.239 21.1787C207.455 18.8485 209.092 16.9828 211.105 15.6333C213.111 14.2912 215.324 13.6128 217.698 13.6128C220.485 13.6128 222.853 14.188 224.718 15.331C226.577 16.4666 228.007 18.0889 228.951 20.1463C229.91 22.2259 230.396 24.7184 230.396 27.5501V30.7652H209.771L209.579 31.0823L209.491 31.3551C209.527 33.4642 209.904 35.3593 210.611 36.9964C211.319 38.6556 212.366 39.983 213.709 40.9416C215.058 41.9003 216.703 42.387 218.583 42.387C220.603 42.387 222.403 42.092 223.944 41.5094C225.301 40.9932 226.518 40.3001 227.55 39.4373L229.386 42.4902C228.317 43.4562 226.923 44.2895 225.227 44.9679C223.398 45.7054 221.164 46.0814 218.583 46.0814V46.0962ZM217.691 17.3441C216.297 17.3441 215.014 17.7571 213.878 18.5683C212.757 19.3647 211.828 20.4634 211.105 21.8277C210.39 23.1771 209.918 24.7257 209.697 26.4292L209.682 26.5398L209.83 26.9232L210.184 27.0707H225.411V25.8614C225.411 24.2685 225.124 22.8084 224.563 21.5401C223.988 20.2496 223.111 19.2172 221.968 18.4724C220.825 17.7276 219.379 17.3441 217.683 17.3441H217.691Z" fill="#F7F7F7"/>
<path d="M255.018 45.4695V42.5272L259.848 41.6939V25.7287C259.848 22.7495 259.258 20.6848 258.056 19.4017C256.854 18.1259 255.033 17.4844 252.622 17.4844C250.867 17.4844 249.289 17.9194 247.932 18.7675C246.575 19.6155 245.483 20.788 244.68 22.2555L244.628 22.3513V41.6939L249.458 42.5272V45.4695H234.82V42.5272L239.65 41.6939V18.0005L234.82 17.1673V14.1955H244.031L244.525 19.8736L245.218 18.7675C246.243 17.1378 247.541 15.8473 249.082 14.9476C250.616 14.048 252.393 13.5981 254.362 13.5981C257.68 13.5981 260.276 14.5789 262.075 16.5036C263.889 18.443 264.804 21.5033 264.804 25.6034V41.6865L269.634 42.5198V45.4621H254.996L255.018 45.4695Z" fill="#F7F7F7"/>
<path d="M287.294 46.0962C284.433 46.0962 281.933 45.4178 279.868 44.0757C277.804 42.7336 276.189 40.8458 275.06 38.4639C273.925 36.0673 273.35 33.2872 273.35 30.1974V29.5411C273.35 26.4513 273.925 23.6712 275.06 21.2746C276.189 18.8927 277.804 16.9976 279.868 15.6481C281.933 14.2986 284.411 13.6128 287.235 13.6128C290.06 13.6128 292.596 14.2986 294.661 15.6481C296.726 17.0049 298.341 18.8927 299.469 21.2599C300.597 23.6491 301.173 26.4366 301.173 29.5411V30.1974C301.173 33.3019 300.597 36.0894 299.469 38.4934C298.341 40.8753 296.733 42.7557 294.676 44.0904C292.626 45.4251 290.141 46.0962 287.294 46.0962V46.0962ZM287.235 17.3441C285.281 17.3441 283.615 17.8898 282.272 18.9665C280.952 20.0357 279.95 21.5032 279.293 23.3468C278.644 25.1534 278.32 27.2403 278.32 29.5411V30.1974C278.32 32.4982 278.644 34.5777 279.293 36.3917C279.95 38.2353 280.96 39.7101 282.295 40.772C283.644 41.8486 285.325 42.3943 287.294 42.3943C289.263 42.3943 290.915 41.8486 292.242 40.7646C293.555 39.7028 294.558 38.2279 295.222 36.3844C295.878 34.5703 296.21 32.4834 296.21 30.19V29.5337C296.21 27.2403 295.878 25.1534 295.222 23.3394C294.55 21.4958 293.54 20.021 292.228 18.9591C290.885 17.8825 289.212 17.3294 287.235 17.3294V17.3441Z" fill="#F7F7F7"/>
<path d="M307.258 45.9045V39.9019H313.098V45.9045H307.258Z" fill="#F7F7F7"/>
<path d="M348.022 45.4694V42.5271L351.429 41.9372L348.302 33.1987H330.405L327.182 41.9372L330.596 42.5271V45.4694H319.107V42.5419L322.182 42.1142L337.263 3.08984H341.673L356.48 42.1142L359.533 42.5419V45.4694H348.014H348.022ZM338.937 10.0216L331.902 29.1724H346.849L339.836 9.73401H339.224L338.944 10.0216H338.937Z" fill="#F7F7F7"/>
<path d="M363.92 45.4694V42.5345L368.75 41.7012V6.89494L363.92 6.06165V3.08984H378.55V6.06165L373.72 6.89494V41.7012L378.55 42.5345V45.4694H363.92Z" fill="#F7F7F7"/>
</g>
<defs>
<clipPath id="clip0_607_16444">
<rect width="379.551" height="187.983" fill="white"/>
</clipPath>
</defs>
</svg>
