<svg width="38" height="84" viewBox="0 0 38 84" fill="none" xmlns="http://www.w3.org/2000/svg">
<g clip-path="url(#clip0_701_16389)">
<path d="M25.75 67.16H21.64C21.62 66.19 21.44 65.24 21.01 64.32C20.7 63.65 20.67 62.92 20.69 62.2C20.74 59.22 20.07 53.29 19.57 50.37C19.5 49.98 19.18 49.43 18.61 49.44C18.04 49.42 17.71 49.98 17.65 50.37C17.15 53.28 16.48 59.22 16.53 62.2C16.54 62.92 16.52 63.66 16.21 64.32C15.55 65.74 15.44 67.22 15.68 68.76C16.05 71.16 15.16 73.4 14.77 75.7C14.52 77.2 14.31 78.67 14.57 80.21C14.75 81.27 14.31 82.75 14.36 83.76H8.97C8.97 83.76 8.25 83.81 8.31 83.23C8.87 82.23 9.94 81.85 10.82 80.96C11.64 80 12.26 79.58 12.11 78.28C11.84 75.84 11.52 73.41 11.27 70.96C11.15 69.77 11.14 68.57 11.41 67.4C12.21 63.99 11.56 57.65 11.05 54.31C10.86 53.09 10.66 51.88 10.49 50.66H14.26V45.17H22.45V39.6H14.13V45.12H9.98C9.98 44.28 9.99 43.43 10.08 42.59C10.34 39.98 10.69 37.37 11.12 34.79C11.46 32.77 11.51 30.79 11.17 28.56C10.56 30.56 10.45 32.42 9.99 34.19C9.48 36.16 8.62 38.05 7.8 39.93C7.08 41.58 6.31 43.24 5.93 44.98C5.53 46.82 5.31 48.73 5.2 50.76C5.2 50.82 5.24 50.79 5.23 50.84C5.16 51.35 4.87 52.36 4.44 52.42C4.44 52.42 3.63 52.87 3.14 53.06C2.65 53.25 2.32 52.63 2.32 52.63C1.74 52.86 1.67 52.51 1.64 52.04C1.55 50.74 1.79 49.46 1.89 48.06C1.16 48.48 1.03 49.13 0 48.63C1.25 47.75 1.55 46.61 2.72 45.79C3.11 45.52 3.3 45.09 3.43 44.62C4.3 41.53 4.83 38.36 5.39 35.21C5.52 34.5 5.64 33.77 5.92 33.12C6.55 31.63 6.91 30.09 7.12 28.53H19.12V23.11H7.47C7.51 21.71 7.61 20.32 7.99 18.96C8.22 18.15 8.65 17.56 9.44 17.2C11 16.49 12.55 15.76 14.07 14.98C15.19 14.41 16 13.41 15.89 11.86C15.87 11.61 15.55 10.51 15.45 10.29C15.1 9.52 14.29 8.74 14.37 5.86C14.42 3.93 15.17 1.92 16.79 1.23C16.79 1.22 17.15 0.999997 18.61 0.999997C20.13 0.969997 20.42 1.22 20.42 1.22C22.04 1.91 22.79 3.91 22.84 5.85C22.92 8.73 22.12 9.52 21.76 10.28C21.66 10.51 21.34 11.6 21.32 11.85C21.21 13.4 22.02 14.4 23.14 14.97C24.67 15.75 26.22 16.47 27.77 17.19C27.99 17.29 28.17 17.41 28.33 17.54H19.1V22.96H26.17V17.55H34.9V23.03H29.72C29.72 23.17 29.73 23.31 29.74 23.45C29.78 25.16 29.84 26.86 30.08 28.54H26.04C26.04 28.54 26.04 28.54 26.04 28.53C26.04 28.53 26.04 28.53 26.04 28.54H18.99V34.1H26C26.03 34.32 26.05 34.54 26.09 34.77C26.52 37.36 26.87 39.96 27.13 42.57C27.52 46.53 26.75 50.41 26.16 54.3C25.66 57.57 25.03 63.7 25.75 67.16ZM37.21 48.62C35.96 47.74 35.66 46.6 34.49 45.78C34.1 45.51 33.91 45.08 33.78 44.61C32.91 41.52 32.38 38.35 31.82 35.2C31.75 34.84 31.69 34.47 31.6 34.11H27.21C27.21 34.11 27.21 34.15 27.22 34.17C27.73 36.14 28.59 38.03 29.41 39.91C30.13 41.56 30.9 43.22 31.28 44.96C31.68 46.8 31.9 48.71 32.01 50.74C32.01 50.8 31.97 50.77 31.98 50.82C32.05 51.33 32.34 52.34 32.77 52.4C32.77 52.4 33.58 52.85 34.07 53.04C34.56 53.23 34.89 52.61 34.89 52.61C35.47 52.84 35.54 52.49 35.57 52.02C35.66 50.72 35.42 49.44 35.32 48.04C36.05 48.46 36.18 49.11 37.21 48.61V48.62ZM26.39 80.95C25.57 79.99 24.95 79.57 25.1 78.27C25.31 76.42 25.53 74.57 25.74 72.72H21.81C22.02 73.71 22.28 74.7 22.45 75.7C22.7 77.2 22.91 78.67 22.65 80.21C22.47 81.27 22.91 82.75 22.86 83.76H28.25C28.25 83.76 28.97 83.81 28.91 83.23C28.35 82.23 27.27 81.85 26.4 80.96L26.39 80.95Z" fill="white"/>
</g>
<defs>
<clipPath id="clip0_701_16389">
<rect width="38" height="84" fill="white"/>
</clipPath>
</defs>
</svg>
