<svg width="444" height="188" viewBox="0 0 444 188" fill="none" xmlns="http://www.w3.org/2000/svg">
<g clip-path="url(#clip0_606_16396)">
<path d="M106.01 124.72V120.73L112.56 119.6V72.4002L106.01 71.2702V67.2402H132.32C136.39 67.2402 139.9 67.9602 142.75 69.3802C145.58 70.7902 147.77 72.7802 149.26 75.2902C150.75 77.8202 151.51 80.8202 151.51 84.2102C151.51 87.6002 150.75 90.6402 149.26 93.1702C147.77 95.6902 145.58 97.6702 142.75 99.0602C139.9 100.46 136.39 101.18 132.32 101.18H119.3V119.59L125.85 120.72V124.71H106.01V124.72ZM119.3 96.1702H132.32C136.44 96.1702 139.58 95.0302 141.66 92.7802C143.73 90.5402 144.77 87.6902 144.77 84.3002C144.77 80.9102 143.72 78.0402 141.66 75.7702C139.58 73.4802 136.44 72.3102 132.32 72.3102H119.3V96.1702V96.1702Z" fill="white"/>
<path d="M183.009 124.72V120.73L189.559 119.6V97.9101C189.559 94.1801 188.729 91.3601 187.089 89.5401C185.439 87.7001 182.969 86.7701 179.759 86.7701C177.489 86.7701 175.399 87.3201 173.529 88.4001C171.669 89.4801 170.119 90.9601 168.929 92.8001L168.839 92.9501V119.61L175.389 120.74V124.73H155.539V120.74L162.089 119.61V68.2201L155.539 67.0901V63.0601H168.829V89.3701L169.899 87.8701C171.339 85.8601 173.129 84.2801 175.209 83.1701C177.279 82.0701 179.629 81.5101 182.169 81.5101C186.639 81.5101 190.139 82.8601 192.589 85.5101C195.049 88.1801 196.289 92.3801 196.289 98.0001V119.61L202.839 120.74V124.73H182.989L183.009 124.72Z" fill="white"/>
<path d="M226.73 125.57C222.84 125.57 219.42 124.67 216.55 122.9C213.68 121.13 211.44 118.63 209.87 115.47C208.3 112.29 207.5 108.55 207.5 104.37V102.6C207.5 98.58 208.34 94.94 209.99 91.78C211.64 88.62 213.86 86.09 216.59 84.26C219.31 82.44 222.31 81.52 225.53 81.52C229.31 81.52 232.52 82.3 235.05 83.85C237.57 85.39 239.51 87.59 240.79 90.38C242.09 93.2 242.75 96.58 242.75 100.42V104.78H214.78L214.52 105.21L214.4 105.58C214.45 108.44 214.96 111.01 215.92 113.23C216.88 115.48 218.3 117.28 220.12 118.58C221.95 119.88 224.18 120.54 226.73 120.54C229.47 120.54 231.91 120.14 234 119.35C235.84 118.65 237.49 117.71 238.89 116.54L241.38 120.68C239.93 121.99 238.04 123.12 235.74 124.04C233.26 125.04 230.23 125.55 226.73 125.55V125.57ZM225.52 86.58C223.63 86.58 221.89 87.14 220.35 88.24C218.83 89.32 217.57 90.81 216.59 92.66C215.62 94.49 214.98 96.59 214.68 98.9L214.66 99.05L214.86 99.57L215.34 99.77H235.99V98.13C235.99 95.97 235.6 93.99 234.84 92.27C234.06 90.52 232.87 89.12 231.32 88.11C229.77 87.1 227.81 86.58 225.51 86.58H225.52Z" fill="white"/>
<path d="M276.14 124.72V120.73L282.69 119.6V97.95C282.69 93.91 281.89 91.11 280.26 89.37C278.63 87.64 276.16 86.77 272.89 86.77C270.51 86.77 268.37 87.36 266.53 88.51C264.69 89.66 263.21 91.25 262.12 93.24L262.05 93.37V119.6L268.6 120.73V124.72H248.75V120.73L255.3 119.6V87.47L248.75 86.34V82.31H261.24L261.91 90.01L262.85 88.51C264.24 86.3 266 84.55 268.09 83.33C270.17 82.11 272.58 81.5 275.25 81.5C279.75 81.5 283.27 82.83 285.71 85.44C288.17 88.07 289.41 92.22 289.41 97.78V119.59L295.96 120.72V124.71H276.11L276.14 124.72Z" fill="white"/>
<path d="M319.91 125.57C316.03 125.57 312.64 124.65 309.84 122.83C307.04 121.01 304.85 118.45 303.32 115.22C301.78 111.97 301 108.2 301 104.01V103.12C301 98.93 301.78 95.16 303.32 91.91C304.85 88.68 307.04 86.11 309.84 84.28C312.64 82.45 316 81.52 319.83 81.52C323.66 81.52 327.1 82.45 329.9 84.28C332.7 86.12 334.89 88.68 336.42 91.89C337.95 95.13 338.73 98.91 338.73 103.12V104.01C338.73 108.22 337.95 112 336.42 115.26C334.89 118.49 332.71 121.04 329.92 122.85C327.14 124.66 323.77 125.57 319.91 125.57V125.57ZM319.83 86.58C317.18 86.58 314.92 87.32 313.1 88.78C311.31 90.23 309.95 92.22 309.06 94.72C308.18 97.17 307.74 100 307.74 103.12V104.01C307.74 107.13 308.18 109.95 309.06 112.41C309.95 114.91 311.32 116.91 313.13 118.35C314.96 119.81 317.24 120.55 319.91 120.55C322.58 120.55 324.82 119.81 326.62 118.34C328.4 116.9 329.76 114.9 330.66 112.4C331.55 109.94 332 107.11 332 104V103.11C332 100 331.55 97.17 330.66 94.71C329.75 92.21 328.38 90.21 326.6 88.77C324.78 87.31 322.51 86.56 319.83 86.56V86.58Z" fill="white"/>
<path d="M346.98 125.31V117.17H354.9V125.31H346.98Z" fill="white"/>
<path d="M402.259 124.72V120.73L406.879 119.93L402.639 108.08H378.369L373.999 119.93L378.629 120.73V124.72H363.049V120.75L367.219 120.17L387.669 67.25H393.649L413.729 120.17L417.869 120.75V124.72H402.249H402.259ZM389.939 76.65L380.399 102.62H400.669L391.159 76.26H390.329L389.949 76.65H389.939Z" fill="white"/>
<path d="M423.82 124.72V120.74L430.37 119.61V72.41L423.82 71.28V67.25H443.66V71.28L437.11 72.41V119.61L443.66 120.74V124.72H423.82Z" fill="white"/>
<path d="M59.4305 121.08C60.7805 112.26 62.5105 103.43 61.6305 94.43C61.0505 88.5 60.2505 82.58 59.2805 76.7C59.2005 76.19 59.1505 75.69 59.0805 75.18H43.1505V62.5601H59.1605C59.1605 62.5601 59.1605 62.5501 59.1605 62.5401V62.5601H68.3405C67.8105 58.7401 67.6705 54.8701 67.5805 50.9901C67.5805 50.6701 67.5605 50.35 67.5505 50.03H79.3105V37.59H59.4805V49.8801H43.4105V37.57H64.3705C63.9905 37.27 63.5805 37.0001 63.0905 36.7701C59.5505 35.1501 56.0305 33.51 52.5605 31.74C50.0205 30.44 48.1805 28.18 48.4305 24.66C48.4705 24.09 49.1905 21.6 49.4305 21.09C50.2405 19.34 52.0505 17.5601 51.8805 11.0201C51.7705 6.63005 50.0705 2.08005 46.3805 0.51005C46.3805 0.51005 45.7005 -0.0399505 42.2605 0.0100495C38.9605 0.0100495 38.1405 0.51005 38.1405 0.51005C34.4505 2.08005 32.7605 6.63005 32.6405 11.0201C32.4705 17.5701 34.2905 19.35 35.0905 21.09C35.3305 21.61 36.0505 24.1 36.0905 24.66C36.3405 28.19 34.5005 30.44 31.9605 31.74C28.5005 33.51 24.9705 35.1601 21.4305 36.7701C19.6505 37.5801 18.6705 38.91 18.1405 40.76C17.2705 43.85 17.0505 47 16.9605 50.18H43.4405V62.4901H16.1805C15.7005 66.0301 14.8805 69.52 13.4405 72.91C12.8105 74.39 12.5205 76.05 12.2305 77.66C10.9405 84.83 9.75047 92.02 7.77047 99.04C7.47047 100.12 7.04047 101.08 6.16047 101.7C3.50047 103.57 2.82047 106.15 -0.0195312 108.15C2.32047 109.28 2.60047 107.81 4.26047 106.86C4.05047 110.04 3.49047 112.95 3.70047 115.89C3.78047 116.94 3.93047 117.74 5.25047 117.22C5.25047 117.22 5.98047 118.63 7.10047 118.2C8.22047 117.77 10.0605 116.74 10.0605 116.74C11.0305 116.58 11.6905 114.3 11.8505 113.14C11.8705 113.01 11.7805 113.08 11.7905 112.95C12.0405 108.32 12.5305 103.99 13.4405 99.81C14.3105 95.85 16.0705 92.09 17.7005 88.34C19.5505 84.07 21.5105 79.78 22.6705 75.3C23.7005 71.29 23.9505 67.0501 25.3405 62.5201C26.1205 67.6 25.9905 72.1 25.2305 76.68C24.2505 82.56 23.4605 88.48 22.8805 94.41C22.6905 96.34 22.6405 98.25 22.6605 100.17H32.0805V87.63H50.9705V100.29H32.3505V112.76H23.7905C24.2005 115.53 24.6505 118.29 25.0705 121.05C26.2305 128.65 27.7005 143.05 25.8905 150.79C25.2705 153.45 25.2905 156.19 25.5605 158.88C26.1205 164.43 26.8505 169.96 27.4605 175.5C27.7905 178.46 26.3805 179.41 24.5305 181.59C22.5405 183.61 20.0905 184.48 18.8205 186.75C18.7005 188.07 20.3305 187.94 20.3305 187.94L30.3005 187.96H32.5705C32.4505 185.67 33.4505 182.3 33.0405 179.9C32.4405 176.4 32.9305 173.06 33.5005 169.65C34.3705 164.42 36.4105 159.34 35.5605 153.89C35.0105 150.4 35.2605 147.05 36.7605 143.81C37.4605 142.29 37.5305 140.63 37.5005 138.99C37.3805 132.22 38.9105 118.74 40.0505 112.12C40.2005 111.23 40.9305 109.98 42.2405 110.02C43.5405 109.99 44.2705 111.24 44.4305 112.12C45.5705 118.74 47.1005 132.21 46.9805 138.99C46.9505 140.63 47.0105 142.3 47.7205 143.81C48.7005 145.91 49.1005 148.06 49.1405 150.26H58.4805C56.8505 142.42 58.2705 128.48 59.4105 121.05L59.4305 121.08Z" fill="white"/>
<path d="M84.5408 108.17C81.6908 106.16 81.0208 103.59 78.3508 101.72C77.4708 101.1 77.0408 100.14 76.7408 99.0602C74.7608 92.0402 73.5708 84.8502 72.2808 77.6802C72.1308 76.8502 71.9808 76.0202 71.7808 75.2002H61.8008C61.8008 75.2002 61.8208 75.2902 61.8308 75.3402C62.9908 79.8202 64.9508 84.1102 66.8008 88.3802C68.4308 92.1402 70.1908 95.8902 71.0608 99.8502C71.9708 104.02 72.4608 108.36 72.7108 112.99C72.7108 113.12 72.6308 113.05 72.6508 113.18C72.8108 114.34 73.4708 116.62 74.4408 116.78C74.4408 116.78 76.2808 117.81 77.4008 118.24C78.5208 118.67 79.2508 117.26 79.2508 117.26C80.5808 117.78 80.7308 116.98 80.8008 115.93C81.0108 112.98 80.4608 110.08 80.2408 106.9C81.9108 107.85 82.1808 109.32 84.5308 108.19L84.5408 108.17Z" fill="white"/>
<path d="M59.9705 181.61C58.1205 179.43 56.7105 178.48 57.0405 175.52C57.5105 171.31 58.0205 167.11 58.5005 162.91H49.5605C50.0505 165.17 50.6405 167.41 51.0105 169.68C51.5705 173.08 52.0705 176.42 51.4705 179.93C51.0605 182.33 52.0705 185.7 51.9405 187.99H54.2105L64.1805 187.97C64.1805 187.97 65.8105 188.1 65.6905 186.78C64.4205 184.51 61.9805 183.64 59.9805 181.62L59.9705 181.61Z" fill="white"/>
</g>
<defs>
<clipPath id="clip0_606_16396">
<rect width="443.66" height="187.98" fill="white"/>
</clipPath>
</defs>
</svg>
