<svg width="192" height="83" viewBox="0 0 192 83" fill="none" xmlns="http://www.w3.org/2000/svg">
<g clip-path="url(#clip0_701_16386)">
<path d="M25.75 66.16H21.64C21.62 65.19 21.44 64.24 21.01 63.32C20.7 62.65 20.67 61.92 20.69 61.2C20.74 58.22 20.07 52.29 19.57 49.37C19.5 48.98 19.18 48.43 18.61 48.44C18.04 48.42 17.71 48.98 17.65 49.37C17.15 52.28 16.48 58.22 16.53 61.2C16.54 61.92 16.52 62.66 16.21 63.32C15.55 64.74 15.44 66.22 15.68 67.76C16.05 70.16 15.16 72.4 14.77 74.7C14.52 76.2 14.31 77.67 14.57 79.21C14.75 80.27 14.31 81.75 14.36 82.76H8.97C8.97 82.76 8.25 82.81 8.31 82.23C8.87 81.23 9.94 80.85 10.82 79.96C11.64 79 12.26 78.58 12.11 77.28C11.84 74.84 11.52 72.41 11.27 69.96C11.15 68.77 11.14 67.57 11.41 66.4C12.21 62.99 11.56 56.65 11.05 53.31C10.86 52.09 10.66 50.88 10.49 49.66H14.26V44.17H22.45V38.6H14.13V44.12H9.98C9.98 43.28 9.99 42.43 10.08 41.59C10.34 38.98 10.69 36.37 11.12 33.79C11.46 31.77 11.51 29.79 11.17 27.56C10.56 29.56 10.45 31.42 9.99 33.19C9.48 35.16 8.62 37.05 7.8 38.93C7.08 40.58 6.31 42.24 5.93 43.98C5.53 45.82 5.31 47.73 5.2 49.76C5.2 49.82 5.24 49.79 5.23 49.84C5.16 50.35 4.87 51.36 4.44 51.42C4.44 51.42 3.63 51.87 3.14 52.06C2.65 52.25 2.32 51.63 2.32 51.63C1.74 51.86 1.67 51.51 1.64 51.04C1.55 49.74 1.79 48.46 1.89 47.06C1.16 47.48 1.03 48.13 0 47.63C1.25 46.75 1.55 45.61 2.72 44.79C3.11 44.52 3.3 44.09 3.43 43.62C4.3 40.53 4.83 37.36 5.39 34.21C5.52 33.5 5.64 32.77 5.92 32.12C6.55 30.63 6.91 29.09 7.12 27.53H19.12V22.11H7.47C7.51 20.71 7.61 19.32 7.99 17.96C8.22 17.15 8.65 16.56 9.44 16.2C11 15.49 12.55 14.76 14.07 13.98C15.19 13.41 16 12.41 15.89 10.86C15.87 10.61 15.55 9.51 15.45 9.29C15.1 8.52 14.29 7.74 14.37 4.86C14.42 2.93 15.17 0.919997 16.79 0.229997C16.79 0.219997 17.15 -3.33157e-06 18.61 -3.33157e-06C20.13 -0.0300033 20.42 0.219997 20.42 0.219997C22.04 0.909997 22.79 2.91 22.84 4.85C22.92 7.73 22.12 8.52 21.76 9.28C21.66 9.51 21.34 10.6 21.32 10.85C21.21 12.4 22.02 13.4 23.14 13.97C24.67 14.75 26.22 15.47 27.77 16.19C27.99 16.29 28.17 16.41 28.33 16.54H19.1V21.96H26.17V16.55H34.9V22.03H29.72C29.72 22.17 29.73 22.31 29.74 22.45C29.78 24.16 29.84 25.86 30.08 27.54H26.04C26.04 27.54 26.04 27.54 26.04 27.53C26.04 27.53 26.04 27.53 26.04 27.54H18.99V33.1H26C26.03 33.32 26.05 33.54 26.09 33.77C26.52 36.36 26.87 38.96 27.13 41.57C27.52 45.53 26.75 49.41 26.16 53.3C25.66 56.57 25.03 62.7 25.75 66.16ZM37.21 47.62C35.96 46.74 35.66 45.6 34.49 44.78C34.1 44.51 33.91 44.08 33.78 43.61C32.91 40.52 32.38 37.35 31.82 34.2C31.75 33.84 31.69 33.47 31.6 33.11H27.21C27.21 33.11 27.21 33.15 27.22 33.17C27.73 35.14 28.59 37.03 29.41 38.91C30.13 40.56 30.9 42.22 31.28 43.96C31.68 45.8 31.9 47.71 32.01 49.74C32.01 49.8 31.97 49.77 31.98 49.82C32.05 50.33 32.34 51.34 32.77 51.4C32.77 51.4 33.58 51.85 34.07 52.04C34.56 52.23 34.89 51.61 34.89 51.61C35.47 51.84 35.54 51.49 35.57 51.02C35.66 49.72 35.42 48.44 35.32 47.04C36.05 47.46 36.18 48.11 37.21 47.61V47.62ZM26.39 79.95C25.57 78.99 24.95 78.57 25.1 77.27C25.31 75.42 25.53 73.57 25.74 71.72H21.81C22.02 72.71 22.28 73.7 22.45 74.7C22.7 76.2 22.91 77.67 22.65 79.21C22.47 80.27 22.91 81.75 22.86 82.76H28.25C28.25 82.76 28.97 82.81 28.91 82.23C28.35 81.23 27.27 80.85 26.4 79.96L26.39 79.95ZM60.63 9.76H58.29V15.85H53.34V9.76H51.01V24.33H53.34V17.82H58.29V24.33H60.63V9.76ZM74.71 9.76L74.69 19.52C74.69 19.97 74.63 20.38 74.52 20.75C74.41 21.12 74.26 21.45 74.05 21.72C73.84 21.99 73.59 22.2 73.28 22.35C72.97 22.5 72.62 22.58 72.22 22.58C71.82 22.58 71.48 22.5 71.18 22.35C70.88 22.2 70.63 21.99 70.43 21.72C70.23 21.45 70.08 21.13 69.97 20.75C69.86 20.37 69.81 19.97 69.8 19.52L69.78 9.76H67.42L67.4 19.52C67.4 20.27 67.53 20.96 67.76 21.58C67.99 22.2 68.32 22.72 68.74 23.16C69.16 23.6 69.66 23.94 70.25 24.18C70.84 24.42 71.49 24.54 72.21 24.54C72.93 24.54 73.62 24.42 74.22 24.18C74.82 23.94 75.33 23.6 75.75 23.16C76.17 22.72 76.5 22.19 76.73 21.57C76.96 20.95 77.08 20.27 77.09 19.52L77.07 9.76H74.71ZM83.85 9.76V24.33H86.11V19.33L85.97 13.19L88 19.93H89.26L91.5 12.94L91.36 19.32V24.32H93.62V9.75H90.64L88.64 16.04L86.83 9.75H83.85V9.76ZM108.43 24.33H110.9L106.26 9.76H104.15L99.42 24.33H101.9L102.9 20.95H107.45L108.43 24.33ZM105.2 13.18L106.85 18.89H103.51L105.2 13.18ZM126.21 9.76H123.78L123.76 19.76L119.04 9.76H116.61V24.33H119.04V14.3L123.79 24.33H126.21V9.76ZM56.25 42.97C56.98 42.97 57.65 42.86 58.27 42.65C58.89 42.44 59.42 42.15 59.87 41.76C60.32 41.37 60.67 40.91 60.92 40.36C61.17 39.81 61.3 39.2 61.3 38.52C61.3 37.84 61.17 37.19 60.92 36.63C60.67 36.07 60.32 35.6 59.87 35.21C59.42 34.82 58.89 34.52 58.27 34.31C57.65 34.1 56.98 33.99 56.25 33.98H51.38V48.55H53.78V42.97H56.25ZM53.78 35.92H56.25C56.66 35.92 57.02 35.99 57.34 36.12C57.66 36.25 57.93 36.42 58.16 36.66C58.39 36.89 58.56 37.17 58.68 37.49C58.8 37.81 58.86 38.16 58.86 38.54C58.86 38.9 58.8 39.23 58.68 39.54C58.56 39.85 58.39 40.11 58.16 40.33C57.93 40.55 57.66 40.72 57.34 40.85C57.02 40.97 56.66 41.04 56.25 41.04H53.78V35.94V35.92ZM77.03 33.98H74.69V40.07H69.74V33.98H67.41V48.55H69.74V42.05H74.69V48.55H77.03V33.98ZM92.53 40.07H86.54V35.96H93.49V33.98H84.13V48.55H93.56V46.59H86.54V42.02H92.53V40.08V40.07ZM109.82 33.98H107.39L107.37 43.98L102.65 33.98H100.22V48.55H102.65V38.52L107.4 48.55H109.82V33.98ZM126.67 40.34C126.67 39.48 126.56 38.65 126.34 37.86C126.12 37.07 125.79 36.37 125.35 35.76C124.91 35.15 124.36 34.67 123.7 34.31C123.04 33.95 122.27 33.77 121.39 33.77C120.81 33.77 120.28 33.85 119.79 34.02C119.31 34.19 118.87 34.42 118.49 34.71C118.11 35 117.77 35.36 117.49 35.77C117.21 36.18 116.97 36.63 116.78 37.11C116.59 37.59 116.45 38.11 116.35 38.66C116.25 39.21 116.21 39.77 116.21 40.34V42.2C116.21 43.06 116.32 43.88 116.54 44.67C116.76 45.46 117.08 46.15 117.51 46.76C117.94 47.36 118.48 47.85 119.13 48.21C119.78 48.57 120.54 48.75 121.41 48.75C122.28 48.75 123.06 48.57 123.72 48.21C124.38 47.85 124.92 47.37 125.36 46.77C125.8 46.17 126.13 45.47 126.35 44.68C126.57 43.89 126.68 43.06 126.68 42.2V40.34H126.67ZM124.26 42.2C124.26 42.75 124.2 43.29 124.11 43.83C124.02 44.37 123.86 44.85 123.64 45.28C123.42 45.71 123.13 46.05 122.76 46.32C122.4 46.59 121.94 46.72 121.39 46.72C120.84 46.72 120.4 46.59 120.04 46.32C119.68 46.05 119.4 45.7 119.19 45.27C118.98 44.84 118.83 44.36 118.74 43.82C118.65 43.28 118.61 42.74 118.6 42.19V40.31C118.6 39.76 118.65 39.22 118.74 38.68C118.82 38.14 118.97 37.66 119.18 37.23C119.39 36.8 119.67 36.46 120.03 36.19C120.39 35.93 120.84 35.79 121.38 35.79C121.92 35.79 122.38 35.92 122.75 36.19C123.11 36.45 123.41 36.8 123.63 37.22C123.85 37.64 124.01 38.13 124.1 38.67C124.19 39.21 124.24 39.75 124.25 40.3V42.18L124.26 42.2ZM143.51 33.97H132.2V35.95H136.64V48.54H139.03V35.95H143.5V33.97H143.51ZM151.23 33.97H148.55L153.06 43.25L153.08 48.54H155.41L155.43 43.31L159.97 33.97H157.29L154.26 40.94L151.23 33.97ZM171.04 42.96C171.77 42.96 172.44 42.85 173.06 42.64C173.68 42.43 174.21 42.14 174.66 41.75C175.11 41.36 175.46 40.9 175.71 40.35C175.96 39.8 176.09 39.19 176.09 38.51C176.09 37.83 175.96 37.18 175.71 36.62C175.46 36.06 175.11 35.59 174.66 35.2C174.21 34.81 173.68 34.51 173.06 34.3C172.44 34.09 171.77 33.98 171.04 33.97H166.17V48.54H168.57V42.96H171.04ZM168.57 35.91H171.04C171.45 35.91 171.81 35.98 172.13 36.11C172.45 36.24 172.72 36.41 172.95 36.65C173.18 36.88 173.35 37.16 173.47 37.48C173.59 37.8 173.65 38.15 173.65 38.53C173.65 38.89 173.59 39.22 173.47 39.53C173.35 39.84 173.18 40.1 172.95 40.32C172.72 40.54 172.45 40.71 172.13 40.84C171.81 40.96 171.45 41.03 171.04 41.03H168.57V35.93V35.91ZM190.92 40.06H184.93V35.95H191.88V33.97H182.52V48.54H191.95V46.58H184.93V42.01H190.92V40.07V40.06ZM56.25 67.17C56.98 67.17 57.65 67.06 58.27 66.85C58.89 66.64 59.42 66.35 59.87 65.96C60.32 65.57 60.67 65.11 60.92 64.56C61.17 64.01 61.3 63.4 61.3 62.72C61.3 62.04 61.17 61.39 60.92 60.83C60.67 60.27 60.32 59.8 59.87 59.41C59.42 59.02 58.89 58.72 58.27 58.51C57.65 58.3 56.98 58.19 56.25 58.18H51.38V72.75H53.78V67.17H56.25ZM53.78 60.12H56.25C56.66 60.12 57.02 60.19 57.34 60.32C57.66 60.45 57.93 60.63 58.16 60.86C58.39 61.09 58.56 61.37 58.68 61.69C58.8 62.01 58.86 62.36 58.86 62.74C58.86 63.1 58.8 63.43 58.68 63.74C58.56 64.05 58.39 64.31 58.16 64.53C57.93 64.75 57.66 64.92 57.34 65.05C57.02 65.17 56.66 65.24 56.25 65.24H53.78V60.14V60.12ZM75.25 72.75H77.81V72.63L74.73 66.51C75.12 66.34 75.48 66.13 75.81 65.88C76.14 65.63 76.42 65.35 76.65 65.02C76.88 64.69 77.07 64.33 77.2 63.92C77.33 63.52 77.4 63.07 77.4 62.57C77.4 61.84 77.27 61.2 77.02 60.65C76.77 60.1 76.41 59.65 75.95 59.28C75.49 58.92 74.94 58.64 74.31 58.46C73.68 58.28 72.99 58.18 72.24 58.17H67.64V72.74H70.04V67.06H72.48L75.25 72.74V72.75ZM70.04 60.12H72.24C72.66 60.12 73.04 60.18 73.38 60.3C73.72 60.41 74.01 60.57 74.25 60.79C74.49 61 74.67 61.27 74.8 61.58C74.93 61.89 74.99 62.25 74.99 62.66C74.99 63.07 74.92 63.4 74.79 63.71C74.66 64.01 74.47 64.27 74.22 64.48C73.98 64.69 73.69 64.85 73.35 64.97C73.02 65.08 72.65 65.14 72.25 65.14H70.04V60.14V60.12ZM93.87 64.54C93.87 63.68 93.76 62.85 93.54 62.06C93.32 61.27 92.99 60.57 92.55 59.96C92.11 59.36 91.56 58.87 90.9 58.51C90.24 58.15 89.47 57.97 88.59 57.97C88.01 57.97 87.48 58.05 86.99 58.22C86.51 58.39 86.07 58.62 85.69 58.91C85.31 59.2 84.97 59.56 84.69 59.97C84.41 60.38 84.17 60.83 83.98 61.31C83.79 61.79 83.65 62.31 83.55 62.86C83.45 63.41 83.41 63.97 83.41 64.54V66.4C83.41 67.26 83.52 68.08 83.74 68.87C83.96 69.66 84.28 70.35 84.71 70.96C85.14 71.56 85.68 72.05 86.33 72.41C86.98 72.77 87.74 72.95 88.61 72.95C89.48 72.95 90.26 72.77 90.92 72.41C91.58 72.05 92.12 71.57 92.56 70.97C93 70.37 93.33 69.67 93.55 68.88C93.77 68.09 93.88 67.26 93.88 66.4V64.54H93.87ZM91.46 66.4C91.46 66.95 91.4 67.49 91.31 68.03C91.22 68.57 91.06 69.05 90.84 69.48C90.62 69.91 90.33 70.25 89.96 70.52C89.6 70.79 89.14 70.92 88.59 70.92C88.04 70.92 87.6 70.79 87.24 70.52C86.88 70.25 86.6 69.9 86.39 69.47C86.18 69.04 86.03 68.56 85.94 68.02C85.85 67.48 85.81 66.94 85.8 66.39V64.51C85.8 63.96 85.85 63.42 85.94 62.88C86.02 62.34 86.17 61.86 86.38 61.43C86.59 61 86.87 60.66 87.23 60.39C87.59 60.13 88.04 59.99 88.58 59.99C89.12 59.99 89.58 60.12 89.95 60.39C90.31 60.65 90.61 61 90.83 61.42C91.05 61.84 91.21 62.33 91.3 62.87C91.39 63.41 91.44 63.95 91.45 64.5V66.38L91.46 66.4ZM107.23 68.29C107.23 68.66 107.16 69.01 107.05 69.34C106.94 69.66 106.77 69.95 106.56 70.2C106.35 70.45 106.09 70.64 105.79 70.78C105.49 70.92 105.16 70.99 104.79 70.99C104.02 70.99 103.42 70.77 103.01 70.33C102.6 69.89 102.38 69.28 102.34 68.49H99.92C99.95 69.2 100.09 69.84 100.34 70.39C100.59 70.94 100.92 71.41 101.34 71.79C101.76 72.17 102.26 72.45 102.84 72.65C103.42 72.85 104.07 72.95 104.78 72.95C105.49 72.95 106.1 72.83 106.69 72.6C107.28 72.37 107.79 72.05 108.23 71.64C108.67 71.23 109.01 70.74 109.26 70.17C109.51 69.6 109.64 68.97 109.66 68.29V58.17H107.22V68.29H107.23ZM125.33 64.27H119.34V60.16H126.29V58.18H116.93V72.75H126.36V70.79H119.34V66.22H125.33V64.28V64.27ZM140.62 68.27C140.54 69.14 140.28 69.82 139.84 70.3C139.4 70.78 138.76 71.02 137.92 71.02C137.37 71.02 136.92 70.9 136.55 70.66C136.18 70.42 135.89 70.09 135.67 69.68C135.45 69.27 135.29 68.78 135.19 68.23C135.09 67.68 135.04 67.09 135.04 66.46V64.45C135.04 63.85 135.09 63.28 135.19 62.73C135.29 62.18 135.45 61.7 135.68 61.28C135.91 60.86 136.2 60.53 136.57 60.28C136.94 60.03 137.39 59.91 137.93 59.91C138.37 59.91 138.75 59.98 139.08 60.11C139.4 60.24 139.67 60.44 139.89 60.69C140.1 60.94 140.27 61.24 140.4 61.59C140.52 61.94 140.61 62.33 140.65 62.76H143.05C142.98 62.03 142.81 61.37 142.56 60.78C142.31 60.19 141.97 59.68 141.54 59.27C141.11 58.86 140.6 58.54 140 58.31C139.4 58.08 138.72 57.97 137.95 57.97C137.08 57.97 136.31 58.14 135.65 58.49C134.99 58.83 134.44 59.3 133.99 59.89C133.55 60.48 133.21 61.17 132.98 61.96C132.75 62.75 132.64 63.59 132.63 64.48V66.47C132.63 67.36 132.75 68.2 132.97 68.99C133.19 69.78 133.52 70.46 133.96 71.05C134.4 71.64 134.95 72.1 135.61 72.45C136.27 72.79 137.04 72.97 137.93 72.97C138.66 72.97 139.33 72.86 139.93 72.63C140.53 72.4 141.05 72.09 141.49 71.68C141.93 71.27 142.28 70.78 142.55 70.2C142.82 69.62 142.98 68.98 143.05 68.28H140.64L140.62 68.27ZM159.91 58.17H148.6V60.15H153.04V72.74H155.43V60.15H159.9V58.17H159.91Z" fill="white"/>
</g>
<defs>
<clipPath id="clip0_701_16386">
<rect width="191.94" height="82.75" fill="white"/>
</clipPath>
</defs>
</svg>
